<svg width="800" height="800" viewBox="0 0 800 800" fill="none" xmlns="http://www.w3.org/2000/svg">
<rect width="800" height="800" fill="#F5F5F5"/>
<path d="M63.5226 69.8946C63.2622 68.997 62.3744 68.4965 61.5409 68.7766C60.7068 69.0568 60.2417 70.0116 60.5021 70.9092C61.0468 72.7875 61.1884 75.4273 58.7681 77.3368C55.5822 79.8522 49.6384 79.7496 43.9774 77.0812C42.7769 76.5171 41.619 75.846 40.5318 75.0839C40.175 74.8354 39.8217 74.5731 39.4809 74.304C35.7854 71.3883 33.579 67.7666 33.579 64.6162C33.579 62.8681 34.2723 61.4342 35.6392 60.3553C35.9108 60.1412 36.2137 59.9389 36.5335 59.7576C41.0539 57.2205 49.1331 58.8151 54.9267 63.3873C55.6312 63.9436 56.6213 63.7795 57.1384 63.0213C57.6552 62.2628 57.5028 61.1975 56.7983 60.6413C53.5214 58.0551 49.5386 56.2284 45.5832 55.4978C43.8383 55.1754 42.1494 55.0762 40.5705 55.1921C41.2822 53.7288 41.6722 52.0773 41.6722 50.3556C41.6722 46.8524 40.0562 43.7499 37.5864 41.8596L40.5731 30.4913C40.8107 29.5865 40.3218 28.6454 39.481 28.3896C38.6399 28.1332 37.7658 28.6599 37.528 29.5649L34.6942 40.3513C33.8355 40.0821 32.929 39.9348 31.9909 39.9348C31.1123 39.9348 30.2368 40.0687 29.3938 40.3201L26.5677 29.5647C26.3299 28.6599 25.4554 28.1332 24.6147 28.3896C23.7739 28.6455 23.2849 29.5865 23.5227 30.4915L26.4884 41.7784C23.8814 43.7088 22.308 46.882 22.308 50.3556C22.308 52.0772 22.6974 53.7282 23.4084 55.1909C21.8344 55.077 20.1506 55.1764 18.4111 55.4978C14.4559 56.2284 10.4729 58.0551 7.19626 60.6411C2.68975 64.1968 -0.000124996 68.8451 4.35643e-09 73.0754C0.000125005 75.8879 1.19125 78.3768 3.35388 80.0829C5.44526 81.7334 8.28188 82.5599 11.4519 82.5596C14.0315 82.5595 16.8314 82.0098 19.6279 80.9134C19.9761 81.9899 20.3881 83.019 20.8615 83.9879C23.4153 89.2082 27.5757 92.3248 31.9904 92.3248C36.4072 92.3248 40.5682 89.2067 43.1217 83.9831C43.5962 83.011 44.0081 81.982 44.3549 80.9094C47.1557 82.009 49.9592 82.5602 52.5422 82.56C55.7111 82.56 58.5486 81.7334 60.6393 80.0829C63.6588 77.7008 64.7097 73.9872 63.5226 69.8946ZM35.2045 74.8736H28.789C30.118 73.4912 31.1995 72.0093 31.9969 70.4938C32.7939 72.0091 33.8754 73.4911 35.2045 74.8736ZM29.0543 44.0902C29.0547 44.0901 29.0549 44.0901 29.055 44.0898C29.9677 43.5926 30.955 43.3405 31.9904 43.3405C35.584 43.3405 38.5074 46.4875 38.5074 50.3558C38.5074 52.9817 37.161 55.3671 34.9928 56.5815C34.0609 57.1043 33.0508 57.3694 31.9903 57.3694C30.9319 57.3694 29.9242 57.1062 28.9942 56.5865C26.8215 55.3737 25.4717 52.9863 25.4717 50.3558C25.4718 47.6935 26.8444 45.2929 29.0543 44.0902ZM20.0043 77.0866C14.3486 79.7494 8.40951 79.8496 5.22501 77.3365C3.85788 76.2579 3.16438 74.8241 3.16438 73.0753C3.16425 69.9255 5.37076 66.3039 9.06701 63.3873C12.9995 60.2835 17.9843 58.5522 22.1935 58.5522C24.1855 58.5522 26.0044 58.9403 27.4545 59.7543C27.7802 59.9388 28.083 60.1411 28.3538 60.3546C29.7214 61.434 30.4145 62.8678 30.4145 64.6161C30.4145 67.7666 28.2084 71.3882 24.5129 74.3037C24.1559 74.5852 23.7877 74.8583 23.4178 75.116C23.403 75.1256 23.3885 75.1353 23.3742 75.1451C22.312 75.8819 21.1786 76.5351 20.0043 77.0866ZM31.9903 88.9195C29.4443 88.9195 27.0389 87.4763 25.1422 84.8789H38.8267C36.9279 87.4486 34.4914 88.9195 31.9903 88.9195ZM40.7407 81.4735H23.2399C22.981 80.8618 22.7495 80.224 22.5444 79.5652C23.2789 79.1704 23.9954 78.7406 24.6878 78.2791H39.3049C39.9943 78.7391 40.708 79.1665 41.4388 79.5598C41.2336 80.2189 41.0012 80.8584 40.7407 81.4735Z" fill="black"/>
</svg>
